<svg xmlns="http://www.w3.org/2000/svg" xmlns:xlink="http://www.w3.org/1999/xlink" width="1366" zoomAndPan="magnify" viewBox="0 0 1024.5 576" height="768" preserveAspectRatio="xMidYMid meet" version="1.0"><defs><g/><clipPath id="73078a26c9"><path d="M 365.8125 203.882812 L 657.359375 203.882812 L 657.359375 372.121094 L 365.8125 372.121094 Z M 365.8125 203.882812 " clip-rule="nonzero"/></clipPath></defs><g clip-path="url(#73078a26c9)"><path fill="#ff8533" d="M 642.976562 322.570312 C 631.054688 335.203125 613.539062 340.621094 597.183594 344.765625 C 590.988281 346.335938 584.765625 347.808594 578.523438 349.1875 C 586.058594 345.402344 593.359375 341.160156 600.382812 336.488281 C 600.90625 336.136719 601.265625 335.503906 601.28125 334.863281 C 601.292969 334.496094 601.074219 333.691406 600.53125 334.054688 C 590.648438 340.632812 580.207031 346.339844 569.363281 351.144531 C 558.023438 353.476562 546.625 355.507812 535.183594 357.238281 C 514.316406 360.394531 493.296875 362.542969 472.222656 363.671875 C 461.71875 364.238281 451.183594 364.632812 440.664062 364.558594 C 439.078125 364.550781 437.492188 364.527344 435.902344 364.480469 C 422.289062 361.414062 408.902344 356.824219 397.039062 349.4375 C 383.203125 340.824219 372.011719 327.886719 368.617188 311.632812 C 368.363281 310.410156 368.148438 309.1875 367.980469 307.957031 C 368.953125 299.164062 372.050781 290.515625 376.480469 282.957031 C 385.574219 267.460938 400.683594 256.46875 416.1875 247.996094 C 423.894531 243.78125 431.878906 240.089844 439.90625 236.535156 C 440.738281 236.167969 441.222656 233.582031 440.054688 234.101562 C 423.164062 241.585938 406.15625 249.761719 392.148438 262.023438 C 380.125 272.550781 370.917969 286.242188 367.457031 301.882812 C 367.011719 288.664062 370.984375 275.375 377.71875 264.03125 C 386.734375 248.851562 401.007812 237.519531 416.503906 229.457031 C 433.097656 220.824219 451.308594 215.558594 469.582031 211.90625 C 490.003906 207.824219 510.878906 206.027344 531.695312 206.542969 C 550.644531 207.015625 569.804688 209.117188 588.066406 214.355469 C 604.734375 219.140625 620.875 226.792969 633.570312 238.804688 C 645.0625 249.675781 652.78125 264.25 655.027344 279.945312 C 657.214844 295.21875 653.761719 311.144531 642.976562 322.570312 Z M 498.378906 368.929688 C 482.113281 370.171875 465.699219 369.585938 449.578125 367.078125 C 456.148438 366.960938 462.71875 366.683594 469.269531 366.359375 C 480.207031 365.8125 491.128906 364.992188 502.023438 363.898438 C 520.71875 362.019531 539.332031 359.335938 557.796875 355.863281 C 555.816406 356.601562 553.820312 357.316406 551.816406 358 C 534.5625 363.875 516.550781 367.539062 498.378906 368.929688 Z M 409.601562 361.164062 C 393.308594 356.941406 377.359375 346.988281 370.851562 330.820312 C 368.882812 325.933594 367.882812 320.816406 367.6875 315.660156 C 369.316406 321.984375 372.03125 328.039062 375.929688 333.542969 C 385.5 347.078125 400.492188 355.796875 415.792969 361.417969 C 417.746094 362.136719 419.71875 362.808594 421.703125 363.445312 C 417.632812 362.929688 413.589844 362.195312 409.601562 361.164062 Z M 650.492188 258.046875 C 643.222656 242.636719 630.542969 230.878906 615.769531 222.691406 C 600.078125 213.988281 582.417969 209.296875 564.757812 206.707031 C 544.015625 203.660156 522.855469 203.128906 501.972656 204.863281 C 481.492188 206.5625 461.023438 210.378906 441.472656 216.761719 C 424.226562 222.386719 407.433594 230.4375 393.742188 242.515625 C 380.738281 253.976562 371.175781 269.078125 367.417969 286.085938 C 365.761719 293.5625 365.359375 301.230469 366.335938 308.675781 C 365.542969 316.054688 366.132812 323.585938 368.554688 330.632812 C 371.320312 338.679688 376.492188 345.667969 383.039062 351.050781 C 397.554688 362.992188 416.453125 366.4375 434.773438 367.023438 C 445.882812 369.582031 457.277344 371.0625 468.574219 371.738281 C 487.222656 372.855469 506.007812 371.507812 524.316406 367.816406 C 539.691406 364.714844 554.75 359.96875 569.105469 353.628906 C 578.734375 351.644531 588.332031 349.460938 597.859375 347.007812 C 606.320312 344.832031 614.757812 342.335938 622.730469 338.71875 C 630.5 335.195312 637.796875 330.535156 643.664062 324.289062 C 649.078125 318.523438 652.929688 311.515625 655.132812 303.9375 C 659.527344 288.820312 657.136719 272.132812 650.492188 258.046875 " fill-opacity="1" fill-rule="nonzero"/></g><g fill="#202f5a" fill-opacity="1"><g transform="translate(400.690591, 276.167678)"><g><path d="M 0.375 -1.421875 C 0.375 -2.023438 0.5625 -2.472656 0.9375 -2.765625 C 1.3125 -3.066406 1.820312 -3.46875 2.46875 -3.96875 C 3.125 -4.46875 3.847656 -5.269531 4.640625 -6.375 C 5.097656 -7.019531 5.660156 -8.238281 6.328125 -10.03125 C 7.003906 -11.832031 7.742188 -13.929688 8.546875 -16.328125 C 9.347656 -18.734375 10.160156 -21.207031 10.984375 -23.75 C 11.804688 -26.300781 12.566406 -28.65625 13.265625 -30.8125 C 13.660156 -31.957031 13.804688 -32.789062 13.703125 -33.3125 C 13.609375 -33.84375 13.398438 -34.242188 13.078125 -34.515625 C 12.753906 -34.785156 12.453125 -35.035156 12.171875 -35.265625 C 11.898438 -35.492188 11.765625 -35.859375 11.765625 -36.359375 C 11.765625 -37.054688 12.078125 -37.488281 12.703125 -37.65625 C 13.328125 -37.832031 14.039062 -37.921875 14.84375 -37.921875 C 15.789062 -37.921875 16.515625 -37.84375 17.015625 -37.6875 C 17.515625 -37.539062 18.414062 -37.46875 19.71875 -37.46875 C 21.164062 -37.46875 22.285156 -37.539062 23.078125 -37.6875 C 23.878906 -37.84375 24.65625 -37.921875 25.40625 -37.921875 C 25.957031 -37.921875 26.421875 -37.84375 26.796875 -37.6875 C 27.171875 -37.539062 27.53125 -37.046875 27.875 -36.203125 C 28.332031 -35.148438 28.910156 -33.507812 29.609375 -31.28125 C 30.304688 -29.0625 31.066406 -26.601562 31.890625 -23.90625 C 32.710938 -21.207031 33.546875 -18.546875 34.390625 -15.921875 C 35.242188 -13.304688 36.046875 -11.019531 36.796875 -9.0625 C 37.546875 -7.113281 38.171875 -5.816406 38.671875 -5.171875 C 39.523438 -4.117188 40.203125 -3.414062 40.703125 -3.0625 C 41.203125 -2.71875 41.453125 -2.171875 41.453125 -1.421875 C 41.453125 -0.671875 41.203125 -0.171875 40.703125 0.078125 C 40.203125 0.328125 39.523438 0.453125 38.671875 0.453125 C 37.722656 0.453125 36.585938 0.375 35.265625 0.21875 C 33.941406 0.0703125 32.503906 0 30.953125 0 C 30.203125 0 29.289062 0.0703125 28.21875 0.21875 C 27.144531 0.375 26.109375 0.453125 25.109375 0.453125 C 24.210938 0.453125 23.453125 0.328125 22.828125 0.078125 C 22.203125 -0.171875 21.890625 -0.671875 21.890625 -1.421875 C 21.890625 -2.171875 22.050781 -2.707031 22.375 -3.03125 C 22.695312 -3.351562 23.007812 -3.816406 23.3125 -4.421875 C 23.613281 -5.023438 23.765625 -6.050781 23.765625 -7.5 C 23.765625 -8.644531 23.488281 -9.539062 22.9375 -10.1875 C 22.382812 -10.84375 21.6875 -11.171875 20.84375 -11.171875 L 13.9375 -11.171875 C 13.09375 -11.171875 12.394531 -10.84375 11.84375 -10.1875 C 11.289062 -9.539062 11.015625 -8.644531 11.015625 -7.5 C 11.015625 -6.050781 11.210938 -5 11.609375 -4.34375 C 12.015625 -3.695312 12.414062 -3.195312 12.8125 -2.84375 C 13.21875 -2.5 13.421875 -2.023438 13.421875 -1.421875 C 13.421875 -0.722656 13.144531 -0.238281 12.59375 0.03125 C 12.039062 0.3125 11.414062 0.453125 10.71875 0.453125 C 9.863281 0.453125 9.195312 0.375 8.71875 0.21875 C 8.25 0.0703125 7.640625 0 6.890625 0 C 6.140625 0 5.523438 0.0703125 5.046875 0.21875 C 4.578125 0.375 3.921875 0.453125 3.078125 0.453125 C 2.378906 0.453125 1.753906 0.3125 1.203125 0.03125 C 0.648438 -0.238281 0.375 -0.722656 0.375 -1.421875 Z M 13.109375 -16.5625 C 12.710938 -15.414062 13.085938 -14.84375 14.234375 -14.84375 L 20.3125 -14.84375 C 21.457031 -14.84375 21.832031 -15.414062 21.4375 -16.5625 C 20.789062 -18.457031 20.164062 -20.441406 19.5625 -22.515625 C 18.957031 -24.597656 18.457031 -26.335938 18.0625 -27.734375 C 17.863281 -28.378906 17.640625 -28.703125 17.390625 -28.703125 C 17.191406 -28.703125 16.96875 -28.40625 16.71875 -27.8125 C 16.21875 -26.40625 15.664062 -24.648438 15.0625 -22.546875 C 14.46875 -20.453125 13.816406 -18.457031 13.109375 -16.5625 Z M 13.109375 -16.5625 "/></g></g></g><g fill="#202f5a" fill-opacity="1"><g transform="translate(442.513657, 276.167678)"><g><path d="M 1.5 -14.921875 C 1.5 -19.566406 2.972656 -23.3125 5.921875 -26.15625 C 8.867188 -29.007812 12.988281 -30.4375 18.28125 -30.4375 C 22.882812 -30.4375 26.375 -29.410156 28.75 -27.359375 C 31.125 -25.304688 32.3125 -22.734375 32.3125 -19.640625 C 32.3125 -17.941406 31.707031 -16.414062 30.5 -15.0625 C 29.300781 -13.71875 27.65625 -13.046875 25.5625 -13.046875 C 23.863281 -13.046875 22.460938 -13.628906 21.359375 -14.796875 C 20.265625 -15.972656 19.71875 -17.257812 19.71875 -18.65625 C 19.71875 -20.3125 19.828125 -21.722656 20.046875 -22.890625 C 20.273438 -24.066406 20.363281 -24.976562 20.3125 -25.625 C 20.257812 -26.28125 19.832031 -26.609375 19.03125 -26.609375 C 17.789062 -26.609375 16.734375 -25.570312 15.859375 -23.5 C 14.984375 -21.425781 14.566406 -18.613281 14.609375 -15.0625 C 14.660156 -11.71875 15.25 -9.03125 16.375 -7 C 17.5 -4.976562 19.160156 -3.992188 21.359375 -4.046875 C 22.859375 -4.046875 23.984375 -4.367188 24.734375 -5.015625 C 25.484375 -5.671875 26.070312 -6.421875 26.5 -7.265625 C 26.925781 -8.117188 27.363281 -8.867188 27.8125 -9.515625 C 28.257812 -10.171875 28.957031 -10.5 29.90625 -10.5 C 30.757812 -10.5 31.394531 -10.234375 31.8125 -9.703125 C 32.238281 -9.179688 32.453125 -8.59375 32.453125 -7.9375 C 32.453125 -6.238281 31.789062 -4.765625 30.46875 -3.515625 C 29.144531 -2.273438 27.382812 -1.300781 25.1875 -0.59375 C 22.988281 0.101562 20.613281 0.453125 18.0625 0.453125 C 15.414062 0.453125 12.816406 -0.0546875 10.265625 -1.078125 C 7.722656 -2.109375 5.625 -3.757812 3.96875 -6.03125 C 2.320312 -8.300781 1.5 -11.265625 1.5 -14.921875 Z M 1.5 -14.921875 "/></g></g></g><g fill="#202f5a" fill-opacity="1"><g transform="translate(476.466789, 276.167678)"><g><path d="M 0.75 -28.1875 C 0.75 -28.9375 1 -29.4375 1.5 -29.6875 C 2 -29.9375 2.695312 -30.1875 3.59375 -30.4375 C 4.5 -30.6875 5.550781 -31.1875 6.75 -31.9375 C 8.34375 -32.925781 9.488281 -33.882812 10.1875 -34.8125 C 10.894531 -35.738281 11.445312 -36.488281 11.84375 -37.0625 C 12.238281 -37.632812 12.765625 -37.921875 13.421875 -37.921875 C 14.316406 -37.921875 14.851562 -37.472656 15.03125 -36.578125 C 15.207031 -35.679688 15.296875 -34.679688 15.296875 -33.578125 L 15.296875 -30.8125 C 15.296875 -30.257812 15.566406 -29.984375 16.109375 -29.984375 L 17.3125 -29.984375 C 18.5625 -29.984375 19.1875 -29.359375 19.1875 -28.109375 C 19.1875 -26.804688 18.5625 -26.15625 17.3125 -26.15625 L 16.109375 -26.15625 C 15.566406 -26.15625 15.296875 -25.878906 15.296875 -25.328125 L 15.296875 -16.5625 C 15.296875 -13.363281 15.332031 -11.039062 15.40625 -9.59375 C 15.476562 -8.144531 15.863281 -7.070312 16.5625 -6.375 C 17.007812 -5.96875 17.382812 -5.710938 17.6875 -5.609375 C 17.988281 -5.515625 18.210938 -5.390625 18.359375 -5.234375 C 18.515625 -5.085938 18.59375 -4.742188 18.59375 -4.203125 C 18.59375 -3.242188 18.050781 -2.226562 16.96875 -1.15625 C 15.894531 -0.0820312 14.007812 0.453125 11.3125 0.453125 C 8.164062 0.453125 6.03125 -0.679688 4.90625 -2.953125 C 3.78125 -5.234375 3.21875 -8.195312 3.21875 -11.84375 L 3.296875 -22.703125 C 3.296875 -24.054688 3.082031 -24.992188 2.65625 -25.515625 C 2.238281 -26.046875 1.816406 -26.457031 1.390625 -26.75 C 0.960938 -27.050781 0.75 -27.53125 0.75 -28.1875 Z M 0.75 -28.1875 "/></g></g></g><g fill="#202f5a" fill-opacity="1"><g transform="translate(496.029189, 276.167678)"><g><path d="M 9.515625 0 C 8.765625 0 7.878906 0.0703125 6.859375 0.21875 C 5.835938 0.375 4.875 0.453125 3.96875 0.453125 C 3.125 0.453125 2.410156 0.328125 1.828125 0.078125 C 1.253906 -0.171875 0.96875 -0.671875 0.96875 -1.421875 C 0.96875 -1.972656 1.09375 -2.382812 1.34375 -2.65625 C 1.59375 -2.9375 1.890625 -3.285156 2.234375 -3.703125 C 2.585938 -4.128906 2.890625 -4.789062 3.140625 -5.6875 C 3.390625 -6.59375 3.515625 -7.921875 3.515625 -9.671875 C 3.515625 -11.960938 3.523438 -13.617188 3.546875 -14.640625 C 3.578125 -15.671875 3.59375 -16.421875 3.59375 -16.890625 C 3.59375 -17.367188 3.59375 -17.910156 3.59375 -18.515625 C 3.59375 -19.859375 3.378906 -20.789062 2.953125 -21.3125 C 2.535156 -21.84375 2.113281 -22.257812 1.6875 -22.5625 C 1.257812 -22.863281 1.046875 -23.335938 1.046875 -23.984375 C 1.046875 -24.734375 1.296875 -25.242188 1.796875 -25.515625 C 2.296875 -25.796875 3.007812 -26.035156 3.9375 -26.234375 C 4.863281 -26.429688 5.972656 -26.753906 7.265625 -27.203125 C 8.867188 -27.804688 9.96875 -28.34375 10.5625 -28.8125 C 11.164062 -29.289062 11.617188 -29.679688 11.921875 -29.984375 C 12.222656 -30.285156 12.695312 -30.4375 13.34375 -30.4375 C 14.238281 -30.4375 14.835938 -30.035156 15.140625 -29.234375 C 15.441406 -28.429688 15.59375 -27.484375 15.59375 -26.390625 L 15.59375 -9.671875 C 15.59375 -7.921875 15.71875 -6.59375 15.96875 -5.6875 C 16.21875 -4.789062 16.515625 -4.128906 16.859375 -3.703125 C 17.210938 -3.285156 17.515625 -2.9375 17.765625 -2.65625 C 18.015625 -2.382812 18.140625 -1.972656 18.140625 -1.421875 C 18.140625 -0.671875 17.851562 -0.171875 17.28125 0.078125 C 16.707031 0.328125 15.992188 0.453125 15.140625 0.453125 C 14.191406 0.453125 13.203125 0.375 12.171875 0.21875 C 11.148438 0.0703125 10.265625 0 9.515625 0 Z M 0.96875 -32.53125 C 0.46875 -34.03125 0.726562 -35.65625 1.75 -37.40625 C 2.78125 -39.15625 4.347656 -40.578125 6.453125 -41.671875 C 8.191406 -42.566406 9.789062 -43.015625 11.25 -43.015625 C 13.445312 -43.015625 14.867188 -42.117188 15.515625 -40.328125 C 16.066406 -38.773438 15.828125 -37.148438 14.796875 -35.453125 C 13.773438 -33.753906 12.21875 -32.332031 10.125 -31.1875 C 8.320312 -30.28125 6.695312 -29.828125 5.25 -29.828125 C 3.101562 -29.828125 1.675781 -30.726562 0.96875 -32.53125 Z M 0.96875 -32.53125 "/></g></g></g><g fill="#202f5a" fill-opacity="1"><g transform="translate(514.842071, 276.167678)"><g><path d="M 0.375 -28.5625 C 0.375 -29.3125 0.671875 -29.8125 1.265625 -30.0625 C 1.867188 -30.3125 2.597656 -30.4375 3.453125 -30.4375 C 4.398438 -30.4375 5.394531 -30.359375 6.4375 -30.203125 C 7.488281 -30.054688 8.390625 -29.984375 9.140625 -29.984375 C 10.085938 -29.984375 11.132812 -30.054688 12.28125 -30.203125 C 13.4375 -30.359375 14.488281 -30.4375 15.4375 -30.4375 C 16.34375 -30.4375 17.09375 -30.3125 17.6875 -30.0625 C 18.289062 -29.8125 18.59375 -29.3125 18.59375 -28.5625 C 18.59375 -27.851562 18.378906 -27.347656 17.953125 -27.046875 C 17.523438 -26.753906 17.3125 -26.160156 17.3125 -25.265625 C 17.3125 -24.015625 17.632812 -22.5 18.28125 -20.71875 C 18.9375 -18.945312 19.585938 -17.335938 20.234375 -15.890625 C 20.679688 -14.785156 21.15625 -14.8125 21.65625 -15.96875 C 22.351562 -17.5625 23.039062 -19.242188 23.71875 -21.015625 C 24.394531 -22.796875 24.734375 -24.210938 24.734375 -25.265625 C 24.734375 -26.160156 24.484375 -26.796875 23.984375 -27.171875 C 23.484375 -27.546875 23.257812 -28.082031 23.3125 -28.78125 C 23.3125 -29.425781 23.484375 -29.863281 23.828125 -30.09375 C 24.179688 -30.320312 24.609375 -30.4375 25.109375 -30.4375 C 25.660156 -30.4375 26.25 -30.359375 26.875 -30.203125 C 27.5 -30.054688 28.035156 -29.984375 28.484375 -29.984375 C 28.929688 -29.984375 29.476562 -30.054688 30.125 -30.203125 C 30.78125 -30.359375 31.382812 -30.4375 31.9375 -30.4375 C 32.425781 -30.4375 32.832031 -30.332031 33.15625 -30.125 C 33.488281 -29.925781 33.65625 -29.53125 33.65625 -28.9375 C 33.65625 -28.28125 33.46875 -27.765625 33.09375 -27.390625 C 32.71875 -27.015625 32.21875 -26.566406 31.59375 -26.046875 C 30.96875 -25.523438 30.242188 -24.6875 29.421875 -23.53125 C 28.597656 -22.382812 27.710938 -20.660156 26.765625 -18.359375 C 25.660156 -15.609375 24.429688 -12.894531 23.078125 -10.21875 C 21.734375 -7.550781 20.460938 -4.867188 19.265625 -2.171875 C 18.515625 -0.421875 17.640625 0.453125 16.640625 0.453125 C 15.691406 0.453125 14.789062 -0.421875 13.9375 -2.171875 C 13.289062 -3.671875 12.578125 -5.253906 11.796875 -6.921875 C 11.023438 -8.597656 10.289062 -10.222656 9.59375 -11.796875 C 8.894531 -13.378906 8.28125 -14.742188 7.75 -15.890625 C 7.226562 -17.035156 6.867188 -17.8125 6.671875 -18.21875 C 5.722656 -20.414062 4.859375 -22.078125 4.078125 -23.203125 C 3.304688 -24.328125 2.644531 -25.160156 2.09375 -25.703125 C 1.550781 -26.253906 1.128906 -26.71875 0.828125 -27.09375 C 0.523438 -27.46875 0.375 -27.957031 0.375 -28.5625 Z M 0.375 -28.5625 "/></g></g></g><g fill="#202f5a" fill-opacity="1"><g transform="translate(548.870148, 276.167678)"><g><path d="M 9.515625 0 C 8.765625 0 7.878906 0.0703125 6.859375 0.21875 C 5.835938 0.375 4.875 0.453125 3.96875 0.453125 C 3.125 0.453125 2.410156 0.328125 1.828125 0.078125 C 1.253906 -0.171875 0.96875 -0.671875 0.96875 -1.421875 C 0.96875 -1.972656 1.09375 -2.382812 1.34375 -2.65625 C 1.59375 -2.9375 1.890625 -3.285156 2.234375 -3.703125 C 2.585938 -4.128906 2.890625 -4.789062 3.140625 -5.6875 C 3.390625 -6.59375 3.515625 -7.921875 3.515625 -9.671875 C 3.515625 -11.960938 3.523438 -13.617188 3.546875 -14.640625 C 3.578125 -15.671875 3.59375 -16.421875 3.59375 -16.890625 C 3.59375 -17.367188 3.59375 -17.910156 3.59375 -18.515625 C 3.59375 -19.859375 3.378906 -20.789062 2.953125 -21.3125 C 2.535156 -21.84375 2.113281 -22.257812 1.6875 -22.5625 C 1.257812 -22.863281 1.046875 -23.335938 1.046875 -23.984375 C 1.046875 -24.734375 1.296875 -25.242188 1.796875 -25.515625 C 2.296875 -25.796875 3.007812 -26.035156 3.9375 -26.234375 C 4.863281 -26.429688 5.972656 -26.753906 7.265625 -27.203125 C 8.867188 -27.804688 9.96875 -28.34375 10.5625 -28.8125 C 11.164062 -29.289062 11.617188 -29.679688 11.921875 -29.984375 C 12.222656 -30.285156 12.695312 -30.4375 13.34375 -30.4375 C 14.238281 -30.4375 14.835938 -30.035156 15.140625 -29.234375 C 15.441406 -28.429688 15.59375 -27.484375 15.59375 -26.390625 L 15.59375 -9.671875 C 15.59375 -7.921875 15.71875 -6.59375 15.96875 -5.6875 C 16.21875 -4.789062 16.515625 -4.128906 16.859375 -3.703125 C 17.210938 -3.285156 17.515625 -2.9375 17.765625 -2.65625 C 18.015625 -2.382812 18.140625 -1.972656 18.140625 -1.421875 C 18.140625 -0.671875 17.851562 -0.171875 17.28125 0.078125 C 16.707031 0.328125 15.992188 0.453125 15.140625 0.453125 C 14.191406 0.453125 13.203125 0.375 12.171875 0.21875 C 11.148438 0.0703125 10.265625 0 9.515625 0 Z M 0.96875 -32.53125 C 0.46875 -34.03125 0.726562 -35.65625 1.75 -37.40625 C 2.78125 -39.15625 4.347656 -40.578125 6.453125 -41.671875 C 8.191406 -42.566406 9.789062 -43.015625 11.25 -43.015625 C 13.445312 -43.015625 14.867188 -42.117188 15.515625 -40.328125 C 16.066406 -38.773438 15.828125 -37.148438 14.796875 -35.453125 C 13.773438 -33.753906 12.21875 -32.332031 10.125 -31.1875 C 8.320312 -30.28125 6.695312 -29.828125 5.25 -29.828125 C 3.101562 -29.828125 1.675781 -30.726562 0.96875 -32.53125 Z M 0.96875 -32.53125 "/></g></g></g><g fill="#202f5a" fill-opacity="1"><g transform="translate(567.683029, 276.167678)"><g><path d="M 0.75 -28.1875 C 0.75 -28.9375 1 -29.4375 1.5 -29.6875 C 2 -29.9375 2.695312 -30.1875 3.59375 -30.4375 C 4.5 -30.6875 5.550781 -31.1875 6.75 -31.9375 C 8.34375 -32.925781 9.488281 -33.882812 10.1875 -34.8125 C 10.894531 -35.738281 11.445312 -36.488281 11.84375 -37.0625 C 12.238281 -37.632812 12.765625 -37.921875 13.421875 -37.921875 C 14.316406 -37.921875 14.851562 -37.472656 15.03125 -36.578125 C 15.207031 -35.679688 15.296875 -34.679688 15.296875 -33.578125 L 15.296875 -30.8125 C 15.296875 -30.257812 15.566406 -29.984375 16.109375 -29.984375 L 17.3125 -29.984375 C 18.5625 -29.984375 19.1875 -29.359375 19.1875 -28.109375 C 19.1875 -26.804688 18.5625 -26.15625 17.3125 -26.15625 L 16.109375 -26.15625 C 15.566406 -26.15625 15.296875 -25.878906 15.296875 -25.328125 L 15.296875 -16.5625 C 15.296875 -13.363281 15.332031 -11.039062 15.40625 -9.59375 C 15.476562 -8.144531 15.863281 -7.070312 16.5625 -6.375 C 17.007812 -5.96875 17.382812 -5.710938 17.6875 -5.609375 C 17.988281 -5.515625 18.210938 -5.390625 18.359375 -5.234375 C 18.515625 -5.085938 18.59375 -4.742188 18.59375 -4.203125 C 18.59375 -3.242188 18.050781 -2.226562 16.96875 -1.15625 C 15.894531 -0.0820312 14.007812 0.453125 11.3125 0.453125 C 8.164062 0.453125 6.03125 -0.679688 4.90625 -2.953125 C 3.78125 -5.234375 3.21875 -8.195312 3.21875 -11.84375 L 3.296875 -22.703125 C 3.296875 -24.054688 3.082031 -24.992188 2.65625 -25.515625 C 2.238281 -26.046875 1.816406 -26.457031 1.390625 -26.75 C 0.960938 -27.050781 0.75 -27.53125 0.75 -28.1875 Z M 0.75 -28.1875 "/></g></g></g><g fill="#202f5a" fill-opacity="1"><g transform="translate(587.24543, 276.167678)"><g><path d="M 0 5.09375 C 0 3.945312 0.359375 2.882812 1.078125 1.90625 C 1.804688 0.9375 2.867188 0.453125 4.265625 0.453125 C 5.566406 0.453125 6.515625 0.675781 7.109375 1.125 C 7.710938 1.570312 8.148438 2.117188 8.421875 2.765625 C 8.703125 3.421875 8.929688 4.070312 9.109375 4.71875 C 9.285156 5.375 9.535156 5.925781 9.859375 6.375 C 10.179688 6.820312 10.742188 7.046875 11.546875 7.046875 C 12.992188 7.046875 14.015625 6.394531 14.609375 5.09375 C 15.210938 3.789062 15.210938 2.21875 14.609375 0.375 C 14.109375 -1.175781 13.507812 -2.925781 12.8125 -4.875 C 12.113281 -6.820312 11.398438 -8.734375 10.671875 -10.609375 C 9.953125 -12.484375 9.316406 -14.101562 8.765625 -15.46875 C 8.210938 -16.84375 7.863281 -17.757812 7.71875 -18.21875 C 6.769531 -20.507812 5.90625 -22.242188 5.125 -23.421875 C 4.351562 -24.597656 3.691406 -25.4375 3.140625 -25.9375 C 2.597656 -26.4375 2.175781 -26.847656 1.875 -27.171875 C 1.570312 -27.492188 1.421875 -27.957031 1.421875 -28.5625 C 1.421875 -29.3125 1.71875 -29.8125 2.3125 -30.0625 C 2.914062 -30.3125 3.644531 -30.4375 4.5 -30.4375 C 5.445312 -30.4375 6.441406 -30.359375 7.484375 -30.203125 C 8.535156 -30.054688 9.4375 -29.984375 10.1875 -29.984375 C 11.144531 -29.984375 12.222656 -30.054688 13.421875 -30.203125 C 14.617188 -30.359375 15.71875 -30.4375 16.71875 -30.4375 C 17.71875 -30.4375 18.53125 -30.3125 19.15625 -30.0625 C 19.78125 -29.8125 20.09375 -29.3125 20.09375 -28.5625 C 20.09375 -27.851562 19.878906 -27.347656 19.453125 -27.046875 C 19.023438 -26.753906 18.8125 -26.160156 18.8125 -25.265625 C 18.8125 -24.410156 18.960938 -23.320312 19.265625 -22 C 19.566406 -20.675781 19.953125 -19.335938 20.421875 -17.984375 C 20.898438 -16.640625 21.335938 -15.46875 21.734375 -14.46875 C 22.179688 -13.363281 22.65625 -13.390625 23.15625 -14.546875 C 23.65625 -15.585938 24.128906 -16.804688 24.578125 -18.203125 C 25.035156 -19.609375 25.425781 -20.957031 25.75 -22.25 C 26.070312 -23.550781 26.234375 -24.554688 26.234375 -25.265625 C 26.234375 -26.160156 25.992188 -26.796875 25.515625 -27.171875 C 25.046875 -27.546875 24.8125 -28.082031 24.8125 -28.78125 C 24.8125 -29.425781 25.007812 -29.863281 25.40625 -30.09375 C 25.8125 -30.320312 26.265625 -30.4375 26.765625 -30.4375 C 27.359375 -30.4375 27.992188 -30.359375 28.671875 -30.203125 C 29.347656 -30.054688 29.910156 -29.984375 30.359375 -29.984375 C 30.804688 -29.984375 31.363281 -30.054688 32.03125 -30.203125 C 32.707031 -30.359375 33.320312 -30.4375 33.875 -30.4375 C 34.425781 -30.4375 34.863281 -30.332031 35.1875 -30.125 C 35.507812 -29.925781 35.671875 -29.53125 35.671875 -28.9375 C 35.671875 -28.332031 35.519531 -27.867188 35.21875 -27.546875 C 34.925781 -27.222656 34.488281 -26.8125 33.90625 -26.3125 C 33.332031 -25.8125 32.660156 -24.984375 31.890625 -23.828125 C 31.117188 -22.679688 30.28125 -20.9375 29.375 -18.59375 C 29.226562 -18.132812 28.90625 -17.207031 28.40625 -15.8125 C 27.90625 -14.414062 27.304688 -12.765625 26.609375 -10.859375 C 25.910156 -8.960938 25.195312 -7.050781 24.46875 -5.125 C 23.75 -3.207031 23.085938 -1.5 22.484375 0 C 21.085938 3.34375 19.210938 6.1875 16.859375 8.53125 C 14.515625 10.882812 11.644531 12.0625 8.25 12.0625 C 6.945312 12.0625 5.65625 11.835938 4.375 11.390625 C 3.101562 10.941406 2.054688 10.203125 1.234375 9.171875 C 0.410156 8.148438 0 6.789062 0 5.09375 Z M 0 5.09375 "/></g></g></g><g fill="#202f5a" fill-opacity="1"><g transform="translate(440.678886, 335.388773)"><g><path d="M 0.671875 -36.046875 C 0.671875 -36.796875 0.957031 -37.296875 1.53125 -37.546875 C 2.113281 -37.796875 2.828125 -37.921875 3.671875 -37.921875 C 4.566406 -37.921875 5.523438 -37.84375 6.546875 -37.6875 C 7.578125 -37.539062 8.46875 -37.46875 9.21875 -37.46875 C 9.96875 -37.46875 10.851562 -37.539062 11.875 -37.6875 C 12.90625 -37.84375 13.894531 -37.921875 14.84375 -37.921875 C 15.6875 -37.921875 16.394531 -37.796875 16.96875 -37.546875 C 17.550781 -37.296875 17.84375 -36.796875 17.84375 -36.046875 C 17.84375 -35.503906 17.71875 -35.09375 17.46875 -34.8125 C 17.21875 -34.539062 16.914062 -34.191406 16.5625 -33.765625 C 16.21875 -33.335938 15.921875 -32.675781 15.671875 -31.78125 C 15.421875 -30.882812 15.296875 -29.5625 15.296875 -27.8125 L 15.296875 -5.25 C 15.296875 -4.59375 15.492188 -4.148438 15.890625 -3.921875 C 16.285156 -3.703125 16.734375 -3.59375 17.234375 -3.59375 C 17.734375 -3.59375 18.160156 -3.59375 18.515625 -3.59375 C 19.609375 -3.59375 20.617188 -3.992188 21.546875 -4.796875 C 22.472656 -5.597656 23.320312 -6.582031 24.09375 -7.75 C 24.875 -8.925781 25.597656 -10.101562 26.265625 -11.28125 C 26.941406 -12.457031 27.617188 -13.441406 28.296875 -14.234375 C 28.972656 -15.035156 29.660156 -15.4375 30.359375 -15.4375 C 31.554688 -15.4375 32.09375 -14.773438 31.96875 -13.453125 C 31.84375 -12.128906 31.304688 -9.769531 30.359375 -6.375 C 30.003906 -5.019531 29.800781 -3.832031 29.75 -2.8125 C 29.707031 -1.789062 29.535156 -0.988281 29.234375 -0.40625 C 28.929688 0.164062 28.234375 0.453125 27.140625 0.453125 C 23.390625 0.453125 20.050781 0.375 17.125 0.21875 C 14.195312 0.0703125 11.535156 0 9.140625 0 C 7.941406 0 6.816406 0.0703125 5.765625 0.21875 C 4.722656 0.375 3.800781 0.453125 3 0.453125 C 2.300781 0.453125 1.738281 0.328125 1.3125 0.078125 C 0.882812 -0.171875 0.671875 -0.671875 0.671875 -1.421875 C 0.671875 -1.972656 0.796875 -2.382812 1.046875 -2.65625 C 1.296875 -2.9375 1.59375 -3.285156 1.9375 -3.703125 C 2.289062 -4.128906 2.59375 -4.789062 2.84375 -5.6875 C 3.09375 -6.59375 3.21875 -7.921875 3.21875 -9.671875 L 3.21875 -27.8125 C 3.21875 -29.5625 3.09375 -30.882812 2.84375 -31.78125 C 2.59375 -32.675781 2.289062 -33.335938 1.9375 -33.765625 C 1.59375 -34.191406 1.296875 -34.539062 1.046875 -34.8125 C 0.796875 -35.09375 0.671875 -35.503906 0.671875 -36.046875 Z M 0.671875 -36.046875 "/></g></g></g><g fill="#202f5a" fill-opacity="1"><g transform="translate(472.908131, 335.388773)"><g><path d="M 9.75 0.453125 C 6.945312 0.453125 4.867188 -0.367188 3.515625 -2.015625 C 2.171875 -3.671875 1.5 -5.644531 1.5 -7.9375 C 1.5 -11.289062 2.75 -13.925781 5.25 -15.84375 C 7.75 -17.769531 10.992188 -19.160156 14.984375 -20.015625 C 18.785156 -20.816406 20.6875 -22.066406 20.6875 -23.765625 C 20.6875 -24.410156 20.410156 -25.046875 19.859375 -25.671875 C 19.304688 -26.296875 18.359375 -26.609375 17.015625 -26.609375 C 15.660156 -26.609375 14.554688 -26.242188 13.703125 -25.515625 C 12.859375 -24.796875 12.113281 -23.972656 11.46875 -23.046875 C 10.820312 -22.117188 10.109375 -21.289062 9.328125 -20.5625 C 8.554688 -19.84375 7.519531 -19.484375 6.21875 -19.484375 C 5.375 -19.484375 4.640625 -19.78125 4.015625 -20.375 C 3.390625 -20.976562 3.078125 -21.707031 3.078125 -22.5625 C 3.078125 -24.257812 3.75 -25.691406 5.09375 -26.859375 C 6.445312 -28.035156 8.207031 -28.925781 10.375 -29.53125 C 12.550781 -30.132812 14.914062 -30.4375 17.46875 -30.4375 C 20.21875 -30.4375 22.710938 -30 24.953125 -29.125 C 27.203125 -28.25 29 -26.785156 30.34375 -24.734375 C 31.695312 -22.679688 32.375 -19.882812 32.375 -16.34375 L 32.375 -9.671875 C 32.375 -7.921875 32.5 -6.59375 32.75 -5.6875 C 33 -4.789062 33.296875 -4.128906 33.640625 -3.703125 C 33.992188 -3.285156 34.296875 -2.9375 34.546875 -2.65625 C 34.796875 -2.382812 34.921875 -1.972656 34.921875 -1.421875 C 34.921875 -0.671875 34.695312 -0.171875 34.25 0.078125 C 33.800781 0.328125 33.226562 0.453125 32.53125 0.453125 C 31.78125 0.453125 30.953125 0.375 30.046875 0.21875 C 29.148438 0.0703125 28.328125 0 27.578125 0 C 26.785156 0 26.085938 0.0351562 25.484375 0.109375 C 24.878906 0.179688 24.253906 0.269531 23.609375 0.375 C 22.804688 0.476562 22.09375 0.378906 21.46875 0.078125 C 20.84375 -0.222656 20.484375 -0.773438 20.390625 -1.578125 C 20.335938 -2.367188 20.210938 -2.898438 20.015625 -3.171875 C 19.816406 -3.453125 19.566406 -3.59375 19.265625 -3.59375 C 18.710938 -3.59375 18 -3.253906 17.125 -2.578125 C 16.25 -1.910156 15.195312 -1.238281 13.96875 -0.5625 C 12.75 0.113281 11.34375 0.453125 9.75 0.453125 Z M 13.109375 -11.015625 C 13.109375 -9.566406 13.472656 -8.53125 14.203125 -7.90625 C 14.929688 -7.28125 15.796875 -6.96875 16.796875 -6.96875 C 18.035156 -6.96875 18.976562 -7.503906 19.625 -8.578125 C 20.28125 -9.648438 20.609375 -10.914062 20.609375 -12.375 L 20.609375 -15.96875 C 20.609375 -17.3125 19.984375 -17.660156 18.734375 -17.015625 C 17.929688 -16.617188 17.09375 -16.179688 16.21875 -15.703125 C 15.351562 -15.222656 14.617188 -14.632812 14.015625 -13.9375 C 13.410156 -13.238281 13.109375 -12.265625 13.109375 -11.015625 Z M 13.109375 -11.015625 "/></g></g></g><g fill="#202f5a" fill-opacity="1"><g transform="translate(508.585149, 335.388773)"><g><path d="M 0.75 -1.421875 C 0.75 -1.972656 0.875 -2.382812 1.125 -2.65625 C 1.375 -2.9375 1.671875 -3.285156 2.015625 -3.703125 C 2.367188 -4.128906 2.671875 -4.789062 2.921875 -5.6875 C 3.171875 -6.59375 3.296875 -7.921875 3.296875 -9.671875 C 3.296875 -11.960938 3.304688 -13.617188 3.328125 -14.640625 C 3.359375 -15.671875 3.375 -16.421875 3.375 -16.890625 C 3.375 -17.367188 3.375 -17.910156 3.375 -18.515625 C 3.375 -19.859375 3.160156 -20.789062 2.734375 -21.3125 C 2.304688 -21.84375 1.878906 -22.257812 1.453125 -22.5625 C 1.035156 -22.863281 0.828125 -23.335938 0.828125 -23.984375 C 0.828125 -24.734375 1.078125 -25.242188 1.578125 -25.515625 C 2.078125 -25.796875 2.785156 -26.035156 3.703125 -26.234375 C 4.628906 -26.429688 5.742188 -26.753906 7.046875 -27.203125 C 8.640625 -27.804688 9.738281 -28.34375 10.34375 -28.8125 C 10.945312 -29.289062 11.394531 -29.679688 11.6875 -29.984375 C 11.988281 -30.285156 12.460938 -30.4375 13.109375 -30.4375 C 14.015625 -30.4375 14.613281 -30.035156 14.90625 -29.234375 C 15.207031 -28.429688 15.359375 -27.484375 15.359375 -26.390625 L 15.359375 -25.78125 C 15.359375 -25.082031 15.484375 -24.734375 15.734375 -24.734375 C 15.984375 -24.734375 16.382812 -25.019531 16.9375 -25.59375 C 17.488281 -26.164062 18.203125 -26.828125 19.078125 -27.578125 C 19.953125 -28.328125 21 -28.988281 22.21875 -29.5625 C 23.445312 -30.144531 24.835938 -30.4375 26.390625 -30.4375 C 28.734375 -30.4375 30.503906 -29.9375 31.703125 -28.9375 C 32.898438 -27.9375 33.710938 -26.6875 34.140625 -25.1875 C 34.566406 -23.6875 34.78125 -22.160156 34.78125 -20.609375 L 34.78125 -9.671875 C 34.78125 -7.921875 34.90625 -6.59375 35.15625 -5.6875 C 35.40625 -4.789062 35.703125 -4.128906 36.046875 -3.703125 C 36.398438 -3.285156 36.703125 -2.9375 36.953125 -2.65625 C 37.203125 -2.382812 37.328125 -1.972656 37.328125 -1.421875 C 37.328125 -0.671875 37.113281 -0.171875 36.6875 0.078125 C 36.257812 0.328125 35.695312 0.453125 35 0.453125 C 34.300781 0.453125 33.488281 0.375 32.5625 0.21875 C 31.644531 0.0703125 30.757812 0 29.90625 0 C 29.101562 0 28.414062 0.0351562 27.84375 0.109375 C 27.269531 0.179688 26.660156 0.269531 26.015625 0.375 C 25.015625 0.476562 24.203125 0.253906 23.578125 -0.296875 C 22.953125 -0.847656 22.640625 -1.625 22.640625 -2.625 L 22.640625 -14.921875 C 22.640625 -17.316406 22.390625 -19.140625 21.890625 -20.390625 C 21.390625 -21.640625 20.488281 -22.265625 19.1875 -22.265625 C 18.039062 -22.265625 17.113281 -21.675781 16.40625 -20.5 C 15.707031 -19.320312 15.359375 -16.910156 15.359375 -13.265625 L 15.359375 -9.671875 C 15.359375 -7.921875 15.484375 -6.59375 15.734375 -5.6875 C 15.984375 -4.789062 16.285156 -4.128906 16.640625 -3.703125 C 16.992188 -3.285156 17.289062 -2.9375 17.53125 -2.65625 C 17.78125 -2.382812 17.90625 -1.972656 17.90625 -1.421875 C 17.90625 -0.671875 17.617188 -0.171875 17.046875 0.078125 C 16.472656 0.328125 15.765625 0.453125 14.921875 0.453125 C 13.960938 0.453125 12.972656 0.375 11.953125 0.21875 C 10.929688 0.0703125 10.046875 0 9.296875 0 C 8.546875 0 7.65625 0.0703125 6.625 0.21875 C 5.601562 0.375 4.644531 0.453125 3.75 0.453125 C 2.894531 0.453125 2.179688 0.328125 1.609375 0.078125 C 1.035156 -0.171875 0.75 -0.671875 0.75 -1.421875 Z M 0.75 -1.421875 "/></g></g></g><g fill="#202f5a" fill-opacity="1"><g transform="translate(546.660627, 335.388773)"><g><path d="M 1.5 -12.59375 C 1.5 -17.988281 2.757812 -22.3125 5.28125 -25.5625 C 7.800781 -28.8125 11.363281 -30.4375 15.96875 -30.4375 C 17.113281 -30.4375 18.085938 -30.394531 18.890625 -30.3125 C 19.691406 -30.238281 20.414062 -30.15625 21.0625 -30.0625 L 21.0625 -31.1875 C 21.0625 -32.53125 20.847656 -33.460938 20.421875 -33.984375 C 19.992188 -34.515625 19.566406 -34.925781 19.140625 -35.21875 C 18.722656 -35.519531 18.515625 -36 18.515625 -36.65625 C 18.515625 -37.40625 18.800781 -37.914062 19.375 -38.1875 C 19.945312 -38.457031 20.742188 -38.691406 21.765625 -38.890625 C 22.796875 -39.097656 23.960938 -39.425781 25.265625 -39.875 C 26.859375 -40.476562 27.941406 -41.015625 28.515625 -41.484375 C 29.085938 -41.960938 29.5 -42.347656 29.75 -42.640625 C 30 -42.941406 30.453125 -43.09375 31.109375 -43.09375 C 32.003906 -43.09375 32.601562 -42.691406 32.90625 -41.890625 C 33.207031 -41.097656 33.359375 -40.148438 33.359375 -39.046875 L 33.359375 -9.671875 C 33.359375 -7.921875 33.484375 -6.59375 33.734375 -5.6875 C 33.984375 -4.789062 34.28125 -4.128906 34.625 -3.703125 C 34.976562 -3.285156 35.28125 -2.9375 35.53125 -2.65625 C 35.78125 -2.382812 35.90625 -1.972656 35.90625 -1.421875 C 35.90625 -0.671875 35.65625 -0.171875 35.15625 0.078125 C 34.65625 0.328125 34.03125 0.453125 33.28125 0.453125 C 32.476562 0.453125 31.613281 0.375 30.6875 0.21875 C 29.769531 0.0703125 28.9375 0 28.1875 0 C 27.382812 0 26.734375 0.046875 26.234375 0.140625 C 25.734375 0.242188 25.160156 0.347656 24.515625 0.453125 C 23.554688 0.546875 22.765625 0.332031 22.140625 -0.1875 C 21.523438 -0.707031 21.191406 -1.445312 21.140625 -2.40625 C 21.085938 -3.644531 20.910156 -4.265625 20.609375 -4.265625 C 20.304688 -4.265625 19.804688 -3.816406 19.109375 -2.921875 C 18.410156 -2.023438 17.472656 -1.238281 16.296875 -0.5625 C 15.128906 0.113281 13.519531 0.453125 11.46875 0.453125 C 8.21875 0.453125 5.742188 -0.734375 4.046875 -3.109375 C 2.347656 -5.484375 1.5 -8.644531 1.5 -12.59375 Z M 14.015625 -17.171875 C 14.015625 -14.421875 14.289062 -12.179688 14.84375 -10.453125 C 15.394531 -8.734375 16.289062 -7.875 17.53125 -7.875 C 18.832031 -7.875 19.742188 -8.734375 20.265625 -10.453125 C 20.796875 -12.179688 21.0625 -14.421875 21.0625 -17.171875 C 21.0625 -19.960938 20.796875 -22.207031 20.265625 -23.90625 C 19.742188 -25.601562 18.832031 -26.453125 17.53125 -26.453125 C 16.289062 -26.453125 15.394531 -25.601562 14.84375 -23.90625 C 14.289062 -22.207031 14.015625 -19.960938 14.015625 -17.171875 Z M 14.015625 -17.171875 "/></g></g></g></svg>